<?xml version="1.0" standalone="no"?>
<!DOCTYPE svg PUBLIC "-//W3C//DTD SVG 20010904//EN"
 "http://www.w3.org/TR/2001/REC-SVG-20010904/DTD/svg10.dtd">
<svg version="1.0" xmlns="http://www.w3.org/2000/svg"
 width="128.000000pt" height="128.000000pt" viewBox="0 0 128.000000 128.000000"
 preserveAspectRatio="xMidYMid meet">
<metadata>
Created by potrace 1.14, written by Peter Selinger 2001-2017
</metadata>
<g transform="translate(0.000000,128.000000) scale(0.100000,-0.100000)"
fill="#000000" stroke="none">
<path d="M317 1113 c-4 -3 -7 -26 -7 -50 0 -43 0 -43 -35 -43 -55 0 -92 -24
-105 -68 -8 -25 -10 -155 -8 -394 3 -357 3 -358 26 -380 l23 -23 410 0 411 0
24 28 c22 26 24 37 24 127 0 93 1 101 26 125 24 24 26 32 22 96 -3 58 -8 74
-26 87 -21 16 -22 25 -24 207 l-3 190 -62 3 -62 3 -3 47 -3 47 -311 3 c-171 1
-313 -1 -317 -5z m473 -138 c0 -108 -1 -115 -20 -115 -18 0 -20 7 -20 64 0 60
-2 64 -25 70 -15 4 -27 16 -31 31 -6 25 -7 25 -128 25 -116 0 -122 -1 -131
-22 -6 -13 -22 -29 -37 -36 -26 -12 -28 -18 -28 -73 0 -52 -2 -59 -20 -59 -19
0 -20 7 -20 115 l0 115 230 0 230 0 0 -115z m70 0 c0 -108 -1 -115 -20 -115
-19 0 -20 7 -20 115 0 108 1 115 20 115 19 0 20 -7 20 -115z m60 0 c0 -108 -1
-115 -20 -115 -19 0 -20 7 -20 115 0 108 1 115 20 115 19 0 20 -7 20 -115z
m-250 40 c0 -8 14 -24 30 -37 26 -19 30 -28 30 -70 l0 -48 -165 0 -165 0 0 48
c0 42 4 51 30 70 17 13 30 29 30 37 0 12 19 15 105 15 86 0 105 -3 105 -15z
m-360 -90 l0 -65 -40 0 c-68 0 -101 55 -64 108 12 17 25 22 60 22 l44 0 0 -65z
m740 0 l0 -65 -50 0 -50 0 0 65 0 65 50 0 50 0 0 -65z m-402 -95 l402 0 0
-100 0 -100 -62 0 c-81 0 -122 -23 -139 -78 -24 -82 37 -142 145 -142 l56 0 0
-103 c0 -67 -4 -107 -12 -115 -9 -9 -115 -12 -414 -12 -353 0 -405 2 -418 16
-14 13 -16 58 -16 339 l0 324 28 -15 c22 -11 99 -14 430 -14z m436 -233 c14
-10 16 -25 14 -82 l-3 -70 -88 -3 c-81 -3 -89 -1 -112 22 -44 44 -26 117 35
139 30 11 136 7 154 -6z"/>
<path d="M640 730 c0 -5 17 -10 37 -10 l38 0 -90 -90 -90 -90 -72 72 -73 73
-72 -72 c-40 -40 -69 -76 -65 -80 4 -4 36 21 70 55 l62 62 72 -72 73 -73 100
100 100 100 0 -38 c0 -20 5 -37 10 -37 6 0 10 25 10 55 l0 55 -55 0 c-30 0
-55 -4 -55 -10z"/>
<path d="M670 570 c0 -5 17 -10 37 -10 l38 0 -107 -107 -108 -108 -68 68 -68
67 -64 -65 c-35 -35 -61 -68 -57 -72 4 -4 33 19 65 50 l58 57 64 -65 c35 -36
69 -65 75 -65 5 0 58 48 117 107 106 106 108 107 108 75 0 -22 5 -32 15 -32
12 0 15 13 15 55 l0 55 -60 0 c-33 0 -60 -4 -60 -10z"/>
<path d="M710 395 c0 -8 -4 -15 -9 -15 -16 0 -23 -38 -11 -60 6 -11 20 -20 30
-20 13 0 20 -7 20 -20 0 -11 -7 -20 -15 -20 -8 0 -15 5 -15 10 0 6 -7 10 -15
10 -8 0 -15 -4 -15 -9 0 -5 7 -14 15 -21 8 -7 15 -19 15 -26 0 -20 27 -17 34
4 3 9 11 24 17 33 16 22 5 47 -26 59 -14 5 -25 16 -25 25 0 17 25 21 35 5 8
-13 25 -13 25 -1 0 5 -7 16 -15 25 -8 8 -15 19 -15 25 0 6 -7 11 -15 11 -8 0
-15 -7 -15 -15z"/>
<path d="M840 395 c0 -8 -4 -15 -10 -15 -5 0 -12 -11 -16 -25 -7 -29 10 -55
37 -55 12 0 19 -7 19 -20 0 -11 -7 -20 -15 -20 -8 0 -15 5 -15 10 0 6 -7 10
-15 10 -8 0 -15 -4 -15 -9 0 -5 7 -14 15 -21 8 -7 15 -19 15 -26 0 -20 27 -17
34 4 3 9 11 24 17 33 16 22 5 47 -26 59 -27 10 -35 40 -10 40 8 0 15 -4 15
-10 0 -5 7 -10 15 -10 8 0 15 4 15 9 0 5 -7 16 -15 25 -8 8 -15 19 -15 25 0 6
-7 11 -15 11 -8 0 -15 -7 -15 -15z"/>
<path d="M928 559 c-21 -12 -24 -49 -6 -67 18 -18 56 -14 68 7 12 24 4 48 -21
61 -21 12 -20 12 -41 -1z m42 -33 c0 -8 -5 -18 -11 -22 -14 -8 -33 11 -25 25
10 16 36 13 36 -3z"/>
</g>
</svg>
